# Blender v3.1.2 OBJ File: ''
# www.blender.org
mtllib enemy.mtl
o 立方体.003_立方体.004
v -0.103844 -0.000180 0.027189
v -0.103844 0.203624 0.027189
v -0.103844 0.203624 -0.027189
v -0.103844 -0.000180 -0.027189
v -0.049465 0.203624 -0.027189
v -0.049465 -0.000180 -0.027189
v -0.049465 0.203624 0.027189
v -0.049465 -0.000180 0.027189
v -0.142997 0.136055 0.142997
v -0.142997 0.422049 0.142997
v -0.142997 0.422049 -0.142997
v -0.142997 0.136055 -0.142997
v 0.142997 0.422049 -0.142997
v 0.142997 0.136055 -0.142997
v 0.142997 0.422049 0.142997
v 0.142997 0.136055 0.142997
v -0.371220 0.270369 0.199371
v -0.371220 0.293520 0.199371
v -0.037260 0.293520 -0.143082
v -0.037260 0.270369 -0.143082
v 0.032139 0.293520 -0.075405
v 0.032139 0.270369 -0.075405
v -0.301822 0.293520 0.267049
v -0.301822 0.270369 0.267049
v 0.316912 0.270369 0.261113
v 0.316912 0.293520 0.261113
v -0.031599 0.293520 -0.066521
v -0.031599 0.270369 -0.066521
v 0.034797 0.293520 -0.137147
v 0.034797 0.270369 -0.137147
v 0.383308 0.293520 0.190487
v 0.383308 0.270369 0.190487
v 0.050879 -0.000180 0.027189
v 0.050879 0.203624 0.027189
v 0.050879 0.203624 -0.027189
v 0.050879 -0.000180 -0.027189
v 0.105258 0.203624 -0.027189
v 0.105258 -0.000180 -0.027189
v 0.105258 0.203624 0.027189
v 0.105258 -0.000180 0.027189
vt 0.625000 0.000000
vt 0.375000 0.250000
vt 0.375000 0.000000
vt 0.625000 0.250000
vt 0.375000 0.500000
vt 0.625000 0.500000
vt 0.375000 0.750000
vt 0.625000 0.750000
vt 0.375000 1.000000
vt 0.125000 0.750000
vt 0.125000 0.500000
vt 0.875000 0.500000
vt 0.625000 0.000000
vt 0.375000 0.250000
vt 0.375000 0.000000
vt 0.625000 0.250000
vt 0.375000 0.500000
vt 0.625000 0.500000
vt 0.375000 0.750000
vt 0.625000 0.750000
vt 0.375000 1.000000
vt 0.125000 0.750000
vt 0.125000 0.500000
vt 0.875000 0.500000
vt 0.625000 0.000000
vt 0.375000 0.250000
vt 0.375000 0.000000
vt 0.625000 0.250000
vt 0.375000 0.500000
vt 0.625000 0.500000
vt 0.375000 0.750000
vt 0.625000 0.750000
vt 0.375000 1.000000
vt 0.125000 0.750000
vt 0.125000 0.500000
vt 0.875000 0.750000
vt 0.625000 0.000000
vt 0.375000 0.250000
vt 0.375000 0.000000
vt 0.625000 0.250000
vt 0.375000 0.500000
vt 0.625000 0.500000
vt 0.375000 0.750000
vt 0.625000 0.750000
vt 0.375000 1.000000
vt 0.125000 0.750000
vt 0.125000 0.500000
vt 0.875000 0.750000
vt 0.625000 0.000000
vt 0.375000 0.250000
vt 0.375000 0.000000
vt 0.625000 0.250000
vt 0.375000 0.500000
vt 0.625000 0.500000
vt 0.375000 0.750000
vt 0.625000 0.750000
vt 0.375000 1.000000
vt 0.125000 0.750000
vt 0.125000 0.500000
vt 0.875000 0.500000
vt 0.625000 1.000000
vt 0.875000 0.750000
vt 0.625000 1.000000
vt 0.875000 0.750000
vt 0.625000 1.000000
vt 0.875000 0.500000
vt 0.625000 1.000000
vt 0.875000 0.500000
vt 0.625000 1.000000
vt 0.875000 0.750000
vn -1.0000 0.0000 0.0000
vn 0.0000 0.0000 -1.0000
vn 1.0000 -0.0000 0.0000
vn 0.0000 -0.0000 1.0000
vn 0.0000 -1.0000 -0.0000
vn 0.0000 1.0000 0.0000
vn -0.7159 0.0000 -0.6982
vn 0.6982 0.0000 -0.7159
vn 0.7159 -0.0000 0.6982
vn -0.6982 -0.0000 0.7159
vn -0.6849 -0.0000 0.7286
vn -0.7286 0.0000 -0.6850
vn 0.6849 0.0000 -0.7286
vn 0.7286 0.0000 0.6850
usemtl Material
s 1
f 2/1/1 4/2/1 1/3/1
f 3/4/2 6/5/2 4/2/2
f 5/6/3 8/7/3 6/5/3
f 7/8/4 1/9/4 8/7/4
f 6/5/5 1/10/5 4/11/5
f 3/12/6 7/8/6 5/6/6
f 10/13/1 12/14/1 9/15/1
f 11/16/2 14/17/2 12/14/2
f 13/18/3 16/19/3 14/17/3
f 15/20/4 9/21/4 16/19/4
f 14/17/5 9/22/5 12/23/5
f 11/24/6 15/20/6 13/18/6
f 18/25/7 20/26/7 17/27/7
f 19/28/8 22/29/8 20/26/8
f 21/30/9 24/31/9 22/29/9
f 23/32/10 17/33/10 24/31/10
f 22/29/5 17/34/5 20/35/5
f 21/30/6 18/36/6 23/32/6
f 26/37/11 28/38/11 25/39/11
f 27/40/12 30/41/12 28/38/12
f 29/42/13 32/43/13 30/41/13
f 31/44/14 25/45/14 32/43/14
f 30/41/5 25/46/5 28/47/5
f 29/42/6 26/48/6 31/44/6
f 34/49/1 36/50/1 33/51/1
f 35/52/2 38/53/2 36/50/2
f 37/54/3 40/55/3 38/53/3
f 39/56/4 33/57/4 40/55/4
f 38/53/5 33/58/5 36/59/5
f 35/60/6 39/56/6 37/54/6
f 2/1/1 3/4/1 4/2/1
f 3/4/2 5/6/2 6/5/2
f 5/6/3 7/8/3 8/7/3
f 7/8/4 2/61/4 1/9/4
f 6/5/5 8/7/5 1/10/5
f 3/12/6 2/62/6 7/8/6
f 10/13/1 11/16/1 12/14/1
f 11/16/2 13/18/2 14/17/2
f 13/18/3 15/20/3 16/19/3
f 15/20/4 10/63/4 9/21/4
f 14/17/5 16/19/5 9/22/5
f 11/24/6 10/64/6 15/20/6
f 18/25/7 19/28/7 20/26/7
f 19/28/8 21/30/8 22/29/8
f 21/30/9 23/32/9 24/31/9
f 23/32/10 18/65/10 17/33/10
f 22/29/5 24/31/5 17/34/5
f 21/30/6 19/66/6 18/36/6
f 26/37/11 27/40/11 28/38/11
f 27/40/12 29/42/12 30/41/12
f 29/42/13 31/44/13 32/43/13
f 31/44/14 26/67/14 25/45/14
f 30/41/5 32/43/5 25/46/5
f 29/42/6 27/68/6 26/48/6
f 34/49/1 35/52/1 36/50/1
f 35/52/2 37/54/2 38/53/2
f 37/54/3 39/56/3 40/55/3
f 39/56/4 34/69/4 33/57/4
f 38/53/5 40/55/5 33/58/5
f 35/60/6 34/70/6 39/56/6
